<svg width="166" height="35" viewBox="0 0 166 35" fill="none" xmlns="http://www.w3.org/2000/svg">
<g clip-path="url(#clip0_581_1384)">
<path d="M0 0.985901H11.1801C17.6158 0.985901 22.6423 5.23242 22.6423 11.6967C22.6423 15.66 20.7632 18.4438 17.8506 19.9534L24.1455 34.0141H15.8777L7.51604 15.3298H11.1801C13.5759 15.3298 14.8442 13.6312 14.8442 11.6967C14.8442 9.76217 13.5759 8.06358 11.1801 8.06358H7.51604V34.0141H0V0.985901Z" fill="black"/>
<path d="M25.1282 19.7498V0.985901H32.6526V19.7498C32.6526 24.8416 35.5684 27.4344 39.2366 27.4344C43.1868 27.4344 46.1026 24.8416 46.1026 19.7498V0.985901H53.3447V19.7498C53.3447 29.2732 47.4663 34.6479 39.2366 34.6479C31.0065 34.6479 25.1282 29.2732 25.1282 19.7498Z" fill="black"/>
<path d="M56.1522 0.985901H67.7012C77.184 0.985901 84.7899 7.11999 84.7899 17.5002C84.7899 27.8804 77.184 34.0141 67.7012 34.0141H56.1522V0.985901ZM67.7012 26.9368C73.3348 26.9368 76.9966 23.3506 76.9966 17.5002C76.9966 11.6494 73.3348 8.06358 67.7012 8.06358H63.6637V26.9368H67.7012Z" fill="black"/>
<path d="M86.6148 17.5C86.6148 7.13598 94.2213 0.352112 103.706 0.352112C113.191 0.352112 120.797 7.13598 120.797 17.5C120.797 27.864 113.191 34.6479 103.706 34.6479C94.2213 34.6479 86.6148 27.864 86.6148 17.5ZM103.706 27.393C109.34 27.393 113.003 23.3413 113.003 17.5C113.003 11.6582 109.34 7.60704 103.706 7.60704C98.0713 7.60704 94.4094 11.6582 94.4094 17.5C94.4094 23.3413 98.0713 27.393 103.706 27.393Z" fill="black"/>
<path d="M155.909 19.4509C155.183 18.9708 154.278 18.7273 153.22 18.7273H151.711C151.207 18.7273 150.824 18.6304 150.574 18.4391C150.342 18.263 150.23 17.9753 150.23 17.56V17.2535H147.868V17.56C147.868 17.9753 147.755 18.263 147.525 18.4391C147.273 18.6304 146.891 18.7273 146.387 18.7273H144.878C143.82 18.7273 142.915 18.9708 142.188 19.4509C141.469 19.926 140.933 20.7407 140.591 21.8687L142.417 22.8873L142.526 22.6032C142.589 22.4165 142.691 22.2456 142.825 22.1021C142.959 21.9587 143.121 21.8458 143.301 21.771C143.805 21.5827 144.341 21.4952 144.878 21.5133H146.387C146.986 21.5248 147.579 21.3874 148.113 21.1132C148.48 20.9163 148.799 20.6401 149.049 20.3041C149.298 20.6401 149.618 20.9163 149.985 21.1132C150.519 21.3874 151.112 21.5247 151.711 21.5133H153.22C153.757 21.4952 154.292 21.5827 154.797 21.771C154.977 21.8458 155.139 21.9587 155.273 22.1021C155.407 22.2456 155.509 22.4165 155.573 22.6032L155.68 22.8873L155.692 22.8833L157.507 21.8687C157.165 20.7407 156.629 19.926 155.909 19.4509Z" fill="black"/>
<path d="M158.702 0.49295H139.396C137.463 0.498631 135.61 1.27196 134.242 2.64401C132.874 4.01607 132.104 5.87534 132.098 7.8157V27.1843C132.104 29.1246 132.874 30.9839 134.242 32.356C135.61 33.728 137.463 34.5013 139.396 34.507H158.702C160.635 34.5013 162.488 33.728 163.856 32.356C165.224 30.9839 165.994 29.1246 166 27.1843V7.8157C165.994 5.87534 165.224 4.01607 163.856 2.64401C162.488 1.27196 160.635 0.498631 158.702 0.49295ZM160.177 23.2322L149.049 29.3856L137.921 23.2322V17.0787C137.921 11.2019 142.913 6.42041 149.049 6.42041C155.185 6.42041 160.177 11.2016 160.177 17.0787V23.2322Z" fill="black"/>
</g>
<defs>
<clipPath id="clip0_581_1384">
<rect width="166" height="35" fill="white"/>
</clipPath>
</defs>
</svg>
