<svg width="25" height="25" viewBox="0 0 25 25" fill="none" xmlns="http://www.w3.org/2000/svg">
<path d="M16.2776 20.1528C15.3913 20.1528 14.6455 19.8786 14.0402 19.3302C13.4349 18.7818 13.1323 18.1062 13.1323 17.3032C13.1323 16.5002 13.4349 15.8245 14.0402 15.2761C14.6455 14.7278 15.3913 14.4536 16.2776 14.4536C17.1639 14.4536 17.9096 14.7278 18.5149 15.2761C19.1202 15.8245 19.4228 16.5002 19.4228 17.3032C19.4228 18.1062 19.1202 18.7818 18.5149 19.3302C17.9096 19.8786 17.1639 20.1528 16.2776 20.1528ZM3.04799 25C2.20493 25 1.48617 24.7307 0.891699 24.1921C0.297233 23.6535 0 23.0023 0 22.2385V4.55347C0 3.78966 0.297233 3.13357 0.891699 2.58519C1.48617 2.03682 2.20493 1.76263 3.04799 1.76263H4.86381V0H7.5227V1.76263H17.4449V0H20.1038V1.76263H21.9196C22.7626 1.76263 23.4868 2.03682 24.0921 2.58519C24.6974 3.13357 25 3.78966 25 4.55347V22.2385C25 23.0023 24.6974 23.6535 24.0921 24.1921C23.4868 24.7307 22.7626 25 21.9196 25H3.04799ZM3.04799 22.2385H21.9196V9.87074H3.04799V22.2385Z" fill="black"/>
</svg>
